<svg xmlns="http://www.w3.org/2000/svg" width="254.206" height="868.165" viewBox="0 0 254.206 868.165">
  <g id="Grande_Plante" data-name="Grande Plante" transform="translate(-2886.705 -920.204)">
    <path id="Tracé_66" data-name="Tracé 66" d="M2886.705,1483.021v132.334a113.221,113.221,0,0,0,113.22,113.221h27.765a113.221,113.221,0,0,0,113.22-113.221V1483.022Z" transform="translate(0 59.793)" fill="#e28d90"/>
    <g id="Groupe_19" data-name="Groupe 19" transform="translate(2925.954 920.204)">
      <path id="Tracé_67" data-name="Tracé 67" d="M3033.793,931.861s4.658-1.28,4.11-3.8-2.628-1.909-4.766-.555c0,0,2.066-2.474,2.62-3.288s.141-2.023-1.41-1.389a7.833,7.833,0,0,0-2.662,1.95s-.1-4.854-3.58-4.081c-1.8.512-.368,4.7-.368,4.7a42.917,42.917,0,0,1-2.586-4.523c-.6-1.458-2.056-.233-1.863.636s.811,4.2,1.533,5.092c0,0-2.416-2.5-3.592-1.684s.729,5.783,4.471,6.688A24.484,24.484,0,0,0,3033.793,931.861Z" transform="translate(-2911.699 -920.204)" fill="#cc454b"/>
      <path id="Tracé_68" data-name="Tracé 68" d="M2969.112,1148.02s3.765.772,4.283-1.209-1.175-2.3-3.178-2.113c0,0,2.357-1.009,3.043-1.385s.83-1.385-.5-1.495a6.232,6.232,0,0,0-2.59.423s1.68-3.477-1.066-4.184c-1.461-.286-1.957,3.2-1.957,3.2a33.991,33.991,0,0,1-.2-4.14c.1-1.251-1.374-.907-1.551-.221s-.938,3.267-.749,4.163c0,0-.811-2.645-1.939-2.489s-1.569,4.363.757,6.353A19.5,19.5,0,0,0,2969.112,1148.02Z" transform="translate(-2917.977 -897.248)" fill="#cc454b"/>
      <path id="Tracé_69" data-name="Tracé 69" d="M2948.775,1142.274s2.734-3.384,1.012-4.936-2.926-.016-3.777,2.1c0,0,.211-2.9.189-3.781s-.96-1.554-1.762-.275a7.06,7.06,0,0,0-.923,2.824s-2.622-3.5-4.76-1.105c-1.049,1.321,2.2,3.633,2.2,3.633a38.644,38.644,0,0,1-4.268-1.95c-1.206-.75-1.625.909-1.028,1.444s2.8,2.643,3.8,2.919c0,0-3.082-.561-3.512.655s3.571,3.848,6.782,2.544A22.091,22.091,0,0,0,2948.775,1142.274Z" transform="translate(-2920.782 -897.419)" fill="#cc454b"/>
      <g id="Groupe_18" data-name="Groupe 18" transform="translate(0 12.09)">
        <path id="Tracé_70" data-name="Tracé 70" d="M2986.142,1215.274s-1.485-17.818-2.079-22.57a133.5,133.5,0,0,1-1.781-22.568c0-12.472-13.364-31.477-30.29-27.32-6.532,2.079-6.532,2.97-8.314,5.049s-2.375,7.126-5.642,10.987-8.612,15.739-10.1,21.38-3.563,46.919-4.157,58.8-2.673,53.155-.892,70.674-.593,30.884,4.158,58.5,12.174,39.2,13.362,43.059,2.97,9.5-1.188,21.974-5.642,42.168-3.266,54.343,8.314,41.87,9.8,48.4-1.485,6.236,7.72,10.393,14.848,5.643,23.162,4.751,11.879-5.048,18.412-4.454c0,0,.89-55.531-.594-76.911s-13.364-50.78-15.739-56.421a3.152,3.152,0,0,1,.445-3.563,102.266,102.266,0,0,0,12.621-29.1c4.157-16.333,2.078-20.49,2.078-25.241s1.485-21.084,2.375-29.992,2.079-20.193-1.781-39.792a214.045,214.045,0,0,1-4.455-35.338C2989.409,1241.7,2986.142,1215.274,2986.142,1215.274Z" transform="translate(-2922.185 -908.705)" fill="#1c3e7a"/>
        <path id="Tracé_71" data-name="Tracé 71" d="M3072.452,1039.236s-2.375-60.184-13.066-79.584-19.4-28.9-30.883-28.508-22.173,5.938-25.341,51.868-1.979,81.959-1.188,89.877,3.564,17.026,11.878,22.965,4.752,13.858-2.772,23.755-15.045,29.7-14.254,70.477,3.168,26.133,1.188,72.061,2.772,114.031,23.361,154.417c2.376,2.771.792,1.584-.792,5.147s-5.938,19.005-6.334,31.675-.792,46.325-2.772,60.975-5.938,43.158-2.375,47.117,4.751,5.939,11.085,5.939,36.823-.792,41.575-1.188,14.254-15.442,5.542-35.634c-3.959-8.316-2.375-15.838,3.168-28.9s13.858-41.574,13.066-83.543-.792-105.321-1.584-115.219-3.563-107.3-3.959-117.99-3.959-55.431-5.147-62.558-3.959-11.483-4.751-14.65,0-13.066,4.355-17.025,0-21.381-.4-26.133S3072.452,1039.236,3072.452,1039.236Z" transform="translate(-2914.26 -931.132)" fill="#1c3e7a"/>
        <g id="Groupe_17" data-name="Groupe 17" transform="translate(82.51 0.169)">
          <path id="Tracé_72" data-name="Tracé 72" d="M3034.606,1504.052c0-8.909,2.673-102.449,2.97-115.812s-4.455-56.718-5.939-88.492.3-55.828,1.782-84.335-.3-75.427-1.782-92.65-6.236-51.67-8.909-123.83c-1.813-48.96,1.885-62.775,4.453-66.6.66-.439,1.227-.8,1.607-1.043.4.049.794.082,1.184.157,1.835,1.764,7.538,8.95,13.246,33.736,6.929,30.092,11.681,46.919,13.462,66.914s4.751,42.168.4,49.492-7.721,11.681-5.741,29.3,2.97,45.929,3.168,56.619,2.672,83.543,2.969,96.61.89,68,.3,77.208-1.781,51.967-1.781,62.063-2.079,46.028-2.079,57.312-1.486,49.3-2.078,56.719-4.455,27.914-8.316,37.416c-2.679,6.6-3.073,9.615-5.049,12.137-2.392.065-4.778.126-7.067.181C3032.3,1551.624,3034.606,1511.22,3034.606,1504.052Z" transform="translate(-2994.064 -931.285)" fill="#141f46"/>
          <path id="Tracé_73" data-name="Tracé 73" d="M3016.561,934.643c-2.2,6.249-4.834,16.434-5.5,30.574-1.187,25.341-2.375,18.609-1.584,49.493.617,24.057,4.116,65.167,5.634,82.167a15.281,15.281,0,0,0-1.674-1.4c-8.314-5.938-11.087-15.045-11.878-22.964s-1.979-43.949,1.188-89.877C3004.8,952.865,3010.019,940.074,3016.561,934.643Z" transform="translate(-2996.356 -930.928)" fill="#141f46"/>
          <path id="Tracé_74" data-name="Tracé 74" d="M3018.218,1090.1c.357,5.5,2.02,37.523-5.552,65.287-4.751,14.65-5.147,70.081-4.751,83.939s1.979,73.25,7.524,117.99c4.044,32.646,5.887,41.016,6.589,43.16-.174-.227-.379-.479-.65-.794-20.588-40.387-25.34-108.488-23.361-154.417s-.4-31.279-1.188-72.061,6.731-60.579,14.254-70.477C3014.613,1098.075,3017.251,1093.87,3018.218,1090.1Z" transform="translate(-2996.77 -914.413)" fill="#141f46"/>
          <path id="Tracé_75" data-name="Tracé 75" d="M3013.2,1406.5c.4-12.67,4.751-28.112,6.334-31.675a8.814,8.814,0,0,1,1.435-2.294c.2,1.188.413,4.022-.741,8.926-1.584,6.73-2.475,21.48-2.475,44.444s.593,47.909-.4,56.025c-.751,6.162-2.529,26.688-4.036,37.524-1.924-.967-3.21-2.571-5.269-4.859-3.563-3.959.4-32.467,2.375-47.117S3012.807,1419.165,3013.2,1406.5Z" transform="translate(-2995.724 -884.408)" fill="#141f46"/>
        </g>
        <path id="Tracé_76" data-name="Tracé 76" d="M3031.041,1567.05c.9-15.526,3.207-55.929,3.207-63.1,0-8.909,2.673-102.449,2.97-115.812s-4.455-56.718-5.939-88.492.3-55.828,1.782-84.335-.3-75.427-1.782-92.65-6.236-51.67-8.909-123.83c-1.813-48.96,1.885-62.775,4.453-66.6" transform="translate(-2911.592 -931.016)" fill="none" stroke="#658ac6" stroke-linecap="round" stroke-width="0.5"/>
        <line id="Ligne_1" data-name="Ligne 1" x1="7.028" transform="translate(109.689 21.194)" fill="none" stroke="#658ac6" stroke-linecap="round" stroke-width="0.5"/>
        <line id="Ligne_2" data-name="Ligne 2" x1="7.622" transform="translate(108.6 48.514)" fill="none" stroke="#658ac6" stroke-linecap="round" stroke-width="0.5"/>
        <line id="Ligne_3" data-name="Ligne 3" x1="8.909" transform="translate(108.402 83.753)" fill="none" stroke="#658ac6" stroke-linecap="round" stroke-width="0.5"/>
        <line id="Ligne_4" data-name="Ligne 4" x1="5.642" transform="translate(113.946 150.172)" fill="none" stroke="#658ac6" stroke-linecap="round" stroke-width="0.5"/>
        <line id="Ligne_5" data-name="Ligne 5" x1="7.127" transform="translate(114.638 164.228)" fill="none" stroke="#658ac6" stroke-linecap="round" stroke-width="0.5"/>
        <line id="Ligne_6" data-name="Ligne 6" x1="5.741" transform="translate(116.519 179.669)" fill="none" stroke="#658ac6" stroke-linecap="round" stroke-width="0.5"/>
        <line id="Ligne_7" data-name="Ligne 7" x1="7.028" transform="translate(117.41 304.192)" fill="none" stroke="#658ac6" stroke-linecap="round" stroke-width="0.5"/>
        <line id="Ligne_8" data-name="Ligne 8" x1="7.028" transform="translate(117.014 316.763)" fill="none" stroke="#658ac6" stroke-linecap="round" stroke-width="0.5"/>
        <line id="Ligne_9" data-name="Ligne 9" x1="5.642" transform="translate(117.212 336.857)" fill="none" stroke="#658ac6" stroke-linecap="round" stroke-width="0.5"/>
        <line id="Ligne_10" data-name="Ligne 10" x1="4.553" transform="translate(118.301 364.969)" fill="none" stroke="#658ac6" stroke-linecap="round" stroke-width="0.5"/>
        <line id="Ligne_11" data-name="Ligne 11" x1="5.543" transform="translate(123.844 438.812)" fill="none" stroke="#658ac6" stroke-linecap="round" stroke-width="0.5"/>
        <line id="Ligne_12" data-name="Ligne 12" x1="7.028" transform="translate(122.161 461.578)" fill="none" stroke="#658ac6" stroke-linecap="round" stroke-width="0.5"/>
        <line id="Ligne_13" data-name="Ligne 13" x1="4.85" transform="translate(123.646 471.576)" fill="none" stroke="#658ac6" stroke-linecap="round" stroke-width="0.5"/>
        <line id="Ligne_14" data-name="Ligne 14" x1="4.355" transform="translate(121.666 553.04)" fill="none" stroke="#658ac6" stroke-linecap="round" stroke-width="0.5"/>
        <line id="Ligne_15" data-name="Ligne 15" x1="5.939" transform="translate(120.28 575.609)" fill="none" stroke="#658ac6" stroke-linecap="round" stroke-width="0.5"/>
        <line id="Ligne_16" data-name="Ligne 16" x1="6.731" transform="translate(117.311 587.388)" fill="none" stroke="#658ac6" stroke-linecap="round" stroke-width="0.5"/>
        <path id="Tracé_77" data-name="Tracé 77" d="M2949.13,1142.76s4.157,16.927,5.049,24.351,5.048,25.241,7.424,57.312,4.751,60.579,5.938,69.785,4.455,27.022,4.157,35.338,0,29.1-.89,32.961-4.157,22.568-6.236,29.1-6.236,27.023-5.642,37.12,1.781,32.367,3.265,39.791,3.267,19.9,5.345,27.32,5.643,16.036,6.533,19.6,5.939,16.927,5.939,21.084-.3,11.285-1.782,13.363-11.878,1.583-14.056.989c0,0-1.98-6.928-3.267-9.9s-4.8-15.441-6.434-21.974-4.157-25.983-3.711-36.971,1.633-29.4,2.821-40.089,2.673-33.556,2.673-40.385.3-38.16.445-44.544-.594-34.892-1.039-41.722-1.188-38.308-1.484-44.544-1.782-35.04-1.93-39.495-.892-33.407-1.04-38.307-.89-18.115-1.039-25.093S2949.13,1142.76,2949.13,1142.76Z" transform="translate(-2919.322 -908.649)" fill="#141f46"/>
        <path id="Tracé_78" data-name="Tracé 78" d="M2927.049,1367.036c-4.751-27.616-2.376-40.98-4.158-58.5s.3-58.8.892-70.674,2.673-53.156,4.157-58.8,6.83-17.521,10.1-21.38a18.085,18.085,0,0,0,2.672-4.456h0s-3.415,17.224-3.564,24.35.594,28.953.892,34.447-.594,78.1-.446,82.4-.891,44.84-1.039,50.186.742,32.665,1.187,38.455,2.672,16.036,4.6,19.153,7.276,9.651,4.305,19.451-4.751,34-6.384,40.385c-1.609,6.289-2.5,26.661-3.09,30.534-.462-2.338-.876-4.444-1.216-6.184-2.376-12.175-.891-41.871,3.266-54.343s2.376-18.115,1.188-21.974S2931.8,1394.653,2927.049,1367.036Z" transform="translate(-2922.185 -907.537)" fill="#141f46"/>
        <path id="Tracé_79" data-name="Tracé 79" d="M2949.13,1142.76s9.206,36.822,10.1,47.217,5.048,44.839,5.642,57.014,3.861,53.453,5.049,60.876,2.969,38.6,1.485,50.779-7.72,38.9-10.1,46.326-2.673,29.4-1.781,36.228,5.048,43.356,6.83,51.67,10.69,28.8,12.174,35.04,2.079,16.333-.3,21.975" transform="translate(-2919.322 -908.649)" fill="none" stroke="#658ac6" stroke-linecap="round" stroke-width="0.5"/>
        <line id="Ligne_17" data-name="Ligne 17" x1="5.419" transform="translate(39.014 293.947)" fill="none" stroke="#658ac6" stroke-linecap="round" stroke-width="0.5"/>
        <line id="Ligne_18" data-name="Ligne 18" x1="4.751" transform="translate(44.953 355.714)" fill="none" stroke="#658ac6" stroke-linecap="round" stroke-width="0.5"/>
        <line id="Ligne_19" data-name="Ligne 19" x1="6.607" transform="translate(44.507 368.706)" fill="none" stroke="#658ac6" stroke-linecap="round" stroke-width="0.5"/>
        <line id="Ligne_20" data-name="Ligne 20" x1="5.419" transform="translate(49.63 445.32)" fill="none" stroke="#658ac6" stroke-linecap="round" stroke-width="0.5"/>
        <line id="Ligne_21" data-name="Ligne 21" x1="5.865" transform="translate(38.94 545.171)" fill="none" stroke="#658ac6" stroke-linecap="round" stroke-width="0.5"/>
        <line id="Ligne_22" data-name="Ligne 22" x1="5.345" transform="translate(43.394 568.333)" fill="none" stroke="#658ac6" stroke-linecap="round" stroke-width="0.5"/>
        <line id="Ligne_23" data-name="Ligne 23" x1="2.673" transform="translate(15.332 484.963)" fill="none" stroke="#658ac6" stroke-linecap="round" stroke-width="0.5"/>
        <line id="Ligne_24" data-name="Ligne 24" x1="3.044" transform="translate(13.105 468.557)" fill="none" stroke="#658ac6" stroke-linecap="round" stroke-width="0.5"/>
        <line id="Ligne_25" data-name="Ligne 25" x1="4.232" transform="translate(11.249 459.351)" fill="none" stroke="#658ac6" stroke-linecap="round" stroke-width="0.5"/>
        <line id="Ligne_26" data-name="Ligne 26" x1="6.013" transform="translate(12.511 406.939)" fill="none" stroke="#658ac6" stroke-linecap="round" stroke-width="0.5"/>
        <line id="Ligne_27" data-name="Ligne 27" x1="4.306" transform="translate(13.699 384.89)" fill="none" stroke="#658ac6" stroke-linecap="round" stroke-width="0.5"/>
        <path id="Tracé_80" data-name="Tracé 80" d="M2939.645,1219.734c-.594.149-5.345,0-5.345,0" transform="translate(-2920.897 -900.472)" fill="none" stroke="#658ac6" stroke-linecap="round" stroke-width="0.5"/>
        <line id="Ligne_28" data-name="Ligne 28" x1="3.86" transform="translate(15.109 307.013)" fill="none" stroke="#658ac6" stroke-linecap="round" stroke-width="0.5"/>
        <line id="Ligne_29" data-name="Ligne 29" x1="4.677" transform="translate(13.105 291.646)" fill="none" stroke="#658ac6" stroke-linecap="round" stroke-width="0.5"/>
        <path id="Tracé_81" data-name="Tracé 81" d="M2939.329,1153.229s-2.6,14.774-2.97,17.817a59.931,59.931,0,0,0-.816,11.359c.222,4.751.372,18.709.668,21.38s.964,17.595.668,20.491-.3,13.14-.3,15.664-.372,25.315-.3,26.206-.074,19.822-.074,22.42-.074,10.617-.074,13.808-.372,11.879-.372,14.625-.3,11.952-.3,14.18.074,8.834-.074,11.433a103.143,103.143,0,0,0-.074,11.878c.3,3.861.223,14.106.3,15.442s.742,9.279.742,11.21a70.341,70.341,0,0,0,2,13.808c1.262,4.307,1.634,5.939,3.935,9.354a24.083,24.083,0,0,1,3.861,11.507c0,3.044-.52,4.529-1.336,7.646a96.637,96.637,0,0,0-2.45,12.918c-.222,3.193-1.782,14.774-2.227,17.743s-1.336,7.944-1.93,11.211-1.411,12.027-1.485,14.774-.937,12.494-.937,12.494" transform="translate(-2920.804 -907.537)" fill="none" stroke="#658ac6" stroke-linecap="round" stroke-width="0.5"/>
      </g>
    </g>
    <path id="Tracé_82" data-name="Tracé 82" d="M3127.822,1487.3c0,4.058-51.455,7.348-114.926,7.348s-114.927-3.29-114.927-7.348l1.27,113.814,229.334,3.427Z" transform="translate(1.197 60.247)" fill="#e28d90"/>
  </g>
</svg>
