<svg xmlns="http://www.w3.org/2000/svg" width="273" height="266.313" viewBox="0 0 273 266.313">
  <g id="Petite_plante" data-name="Petite plante" transform="translate(-3367.236 -942.836)">
    <path id="Tracé_83" data-name="Tracé 83" d="M3419.408,1056.753v68.718a58.793,58.793,0,0,0,58.792,58.794h14.419a58.793,58.793,0,0,0,58.792-58.794v-68.718Z" transform="translate(11.397 24.884)" fill="#e28d90"/>
    <g id="Groupe_21" data-name="Groupe 21" transform="translate(3367.236 942.836)">
      <path id="Tracé_84" data-name="Tracé 84" d="M3471.57,1056.33c1.476,1.3,2.886,2.893,3.114,4.845a1.953,1.953,0,0,1-.09.98,2.441,2.441,0,0,1-.993.98c-1.747,1.158-3.761,2.369-5.8,1.895-2.255-.524-3.532-2.85-4.529-4.94-.936-1.964-5.06-7.729-1.907-9C3464.148,1049.97,3469.7,1054.685,3471.57,1056.33Z" transform="translate(-3346.93 -919.226)" fill="#2c4d8a"/>
      <path id="Tracé_85" data-name="Tracé 85" d="M3469.182,1063.942c.509.9.959,2.223.112,2.822a2.115,2.115,0,0,1-.848.287,6.48,6.48,0,0,1-3.437.015,11,11,0,0,1-2.83-2.159c-1.394-1.14-3.144-1.776-4.552-2.9a16.465,16.465,0,0,1-3.522-4.486,4.765,4.765,0,0,1-.809-1.9c-.19-1.708,1.406-3.024,2.829-3.987,1.3-.88,3.515-2.886,5.222-2.618,1.422.224,1.972,1.919,2.434,3.072A98.611,98.611,0,0,0,3469.182,1063.942Z" transform="translate(-3348.44 -919.646)" fill="#2c4d8a"/>
      <path id="Tracé_86" data-name="Tracé 86" d="M3368.11,995.425a7.449,7.449,0,0,0,7.143.463,3.344,3.344,0,0,1,1.919-.57,3.666,3.666,0,0,1,1.385.791,5.3,5.3,0,0,0,4.978.56,8,8,0,0,1,1.948-.753c2.208-.276,4.112,2.655,6.195,1.874.605-.227,1.109-.757,1.755-.788.738-.036,1.317.58,1.916,1.013a4.554,4.554,0,0,0,5.053.1c.45-.3.919-.7,1.451-.61a2.029,2.029,0,0,1,1.067.83,6.794,6.794,0,0,0,5.182,2.305,3.922,3.922,0,0,1,1.434.1,4.046,4.046,0,0,1,1.2.906,6.138,6.138,0,0,0,7.187.579c.822,3.552,5.392,4.707,9,4.219a6.592,6.592,0,0,1,2.508-.063,5.506,5.506,0,0,1,1.677.874c16.819,11.5,28.76,28.675,40.316,45.457.979,1.422,2.007,3.048,1.694,4.746-.494,2.683-3.926,3.657-6.626,3.273-4.357-.619-8.145-3.206-11.756-5.722l-15.224-10.607a88.436,88.436,0,0,1-12.838-10.179c-4.772-4.857-8.42-10.81-13.694-15.116a60.088,60.088,0,0,0-11.031-6.631l-30.034-15.243" transform="translate(-3367.045 -931.376)" fill="#2c4d8a"/>
      <path id="Tracé_87" data-name="Tracé 87" d="M3433.823,1037.16a.746.746,0,0,1-.064.6.668.668,0,0,1-.439.2c-1.713.249-4.531-1.979-3.435-3.889C3431.651,1031,3433.567,1035.784,3433.823,1037.16Z" transform="translate(-3353.604 -923.127)" fill="#141f46"/>
      <path id="Tracé_88" data-name="Tracé 88" d="M3437.477,1040.783a1.7,1.7,0,0,1-1.44-1.723,7.637,7.637,0,0,0,1.574-.208,1.894,1.894,0,0,1,1.841,2.263c-.678.575-1.773-.877-2.471-.328" transform="translate(-3352.207 -921.862)" fill="#141f46"/>
      <path id="Tracé_89" data-name="Tracé 89" d="M3445.471,1045.613c.62.272,1.353-.413,1.979-.156a1.24,1.24,0,0,1,.453.374,4.577,4.577,0,0,1,.845,1.506c-.345.4-.985.3-1.474.107a6.037,6.037,0,0,1-2.03-1.329" transform="translate(-3350.195 -920.432)" fill="#141f46"/>
      <path id="Tracé_90" data-name="Tracé 90" d="M3369.156,995.672c1.33-.1,2.2,1.835,3.518,1.642.358-.051.677-.263,1.035-.323a2.1,2.1,0,0,1,1.909,1.132,8,8,0,0,0,1.339,1.917c1.512,1.255,3.789.19,5.736.458,2.834.392,4.689,3.594,7.536,3.875a5.485,5.485,0,0,1,1.383.172,3.49,3.49,0,0,1,1.241.981,24.24,24.24,0,0,0,6.224,4.72c1.286.681,3.2,1.081,3.921-.183a8.971,8.971,0,0,1,1.722,3.1c.506,1.081,1.431,2.169,2.621,2.119.863-.038,1.665-.68,2.512-.52,1.63.3,1.521,2.916,2.91,3.821,1.29.843,3.358-.135,4.392,1.008a6.367,6.367,0,0,1,.675,1.227,2.917,2.917,0,0,0,4.469.523c.206-.222.418-.5.72-.507.345-.006.575.342.73.649,2.055,4.074,2.263,7.386,5.623,10.474l3.014-.091a1.895,1.895,0,0,1,2.18,1.357l3.448,6.534s-24.09-14.67-26.689-17.3-8.366-7.123-16.3-11.834c0,0-14.83-8.151-17.2-9.2s-9.992-5.59-10.517-5.754S3369.156,995.672,3369.156,995.672Z" transform="translate(-3367.235 -931.311)" fill="#141f46"/>
      <path id="Tracé_91" data-name="Tracé 91" d="M3390.125,977.885c.208-.7,4.971,1.171,7.218,2.533s5.6,2.134,7.162.02a3.643,3.643,0,0,1,.721-.9c.76-.542,1.855.041,2.363.826s.7,1.747,1.272,2.489a3.185,3.185,0,0,0,4.987-.244c2.113,2.143,4.78,4.468,7.726,3.859a5.7,5.7,0,0,1,1.52-.261c1.553.106,2.192,2.008,2.45,3.542a2.192,2.192,0,0,0,2.363-.753c1.5,1.187.729,3.825,2.006,5.25,1.071,1.2,3.03.963,4.4,1.795,1.322.8,1.942,2.494,3.321,3.191a8.55,8.55,0,0,0,2.681.538c3.3.48,6.047,2.844,7.994,5.549a45.594,45.594,0,0,1,4.042,7.4l18.495,39.505c.906,1.934,1.835,4.026,1.461,6.129s-2.693,3.967-4.62,3.046l-5.11-6.385-5.061-7.986-4.734-6.74-9.269-11.307s-14.029-14.265-14.016-14.593-10.111-9.992-10.111-9.992l-18.079-16.9-8.151-5.719S3389.457,979.7,3390.125,977.885Z" transform="translate(-3362.253 -935.213)" fill="#658ac6"/>
      <path id="Tracé_92" data-name="Tracé 92" d="M3458.452,1036.788c.187-1.036-1.273-1.4-2.26-1.766-1.712-.634-2.694-2.391-3.529-4.014l-7.841-15.234a10.961,10.961,0,0,0-2.823-3.921,17.35,17.35,0,0,1-2.922-2.036c-1.2-1.384-1.075-3.453-1.756-5.155-1.356-3.386-5.532-4.673-7.716-7.6-1.826-2.447-2.066-5.781-3.792-8.3a7.285,7.285,0,0,1-1.086-1.781c-.523-1.616.435-3.9-1.022-4.774-.64-.381-1.518-.256-2.086-.736-.843-.71-.384-2.069-.591-3.151-.313-1.644-2.2-2.6-2.613-4.216-.251-.976.076-2.051-.274-2.995-.309-.83-1.084-1.4-1.5-2.175a7.012,7.012,0,0,1-.546-2.648,15.215,15.215,0,0,0-3.546-8.26c2.352,4.169,6.425,6.241,11.186,6.738a2.4,2.4,0,0,0,1.775,2.448,7.006,7.006,0,0,0,3.261,0,2.016,2.016,0,0,0,2.7,2.234,1.665,1.665,0,0,0,2.69,1.222,6.434,6.434,0,0,0,6.429,5.819c-.864,1.218.115,2.921,1.3,3.832s2.674,1.613,3.255,2.99c.4.937.318,2.1,1.012,2.843.642.685,1.766.787,2.327,1.539.705.944.139,2.3.4,3.451.482,2.148,3.569,2.854,4.122,4.984.168.651.064,1.345.2,2,.46,2.218,3.35,3.2,3.969,5.383.489,1.72-.581,3.778.42,5.262.514.762,1.459,1.142,1.993,1.89a4.624,4.624,0,0,1,.6,2.544l.774,19.561C3461.044,1034.813,3459.208,1034.894,3458.452,1036.788Z" transform="translate(-3357.338 -939.517)" fill="#3d5f9c"/>
      <path id="Tracé_93" data-name="Tracé 93" d="M3464.428,985.628c-1.735-1.429,1.439-4.6.006-6.329-.324-.391-.849-.625-1.038-1.1-.495-1.229,1.679-2.051,1.715-3.375.038-1.35-2.142-2.059-1.926-3.392.169-1.045,1.713-1.4,1.925-2.432.238-1.165-1.4-2.232-.916-3.319.4-.905,2.013-1,2.043-1.992.015-.492-.413-.867-.637-1.3a3.247,3.247,0,0,1,.343-2.778c.373-.8.773-1.584,1.174-2.37l.619-1.21,3-5.864c1.181-2.313,2.39-4.734,2.4-7.33a14.692,14.692,0,0,0,1.427,4.646,4.968,4.968,0,0,0,3.851,2.664c-.917.464-.751,1.856-.191,2.717s1.4,1.64,1.449,2.666a10.5,10.5,0,0,0-.089,1.795c.332,1.437,2.739,1.946,2.535,3.406-.074.532-.52.984-.486,1.521.059.921,1.418,1.275,1.583,2.182s-.988,1.818-.545,2.632c.235.433.8.549,1.157.892,1.106,1.076-.629,2.757-.754,4.295-.1,1.181.8,2.17,1.458,3.156,2.555,3.842,1.745,8.907.965,13.454-1.681,9.81-2.753,19.78-2.115,29.713a73.029,73.029,0,0,1,.348,8.223,52.29,52.29,0,0,1-1.255,8.077c-1.9,9.147-3.713,18.513-2.512,27.779a9.1,9.1,0,0,1,.072,3.219,2.717,2.717,0,0,1-2.111,2.186c-1.086.831-2.175,2.063-3.524,1.839-2.08-.347-2.818-2.907-3.121-4.994q-5-34.6-9.69-69.244a17.921,17.921,0,0,1-.24-3.341A11.754,11.754,0,0,1,3464.428,985.628Z" transform="translate(-3346.681 -942.836)" fill="#141f46"/>
      <path id="Tracé_94" data-name="Tracé 94" d="M3474.29,1067.333c-.264-2.085-.5-4.344.56-6.159.391-.671.942-1.244,1.289-1.94a2.06,2.06,0,0,0-.054-2.2c-.453-.541-1.318-.732-1.541-1.4-.283-.846.682-1.561.962-2.408a1.685,1.685,0,0,0-.508-1.778,7.246,7.246,0,0,1-.893-.656,1.726,1.726,0,0,1,.438-2.294,3.291,3.291,0,0,0,.49-.465,1.4,1.4,0,0,0,.05-1.429,3.182,3.182,0,0,0-1.016-1.09,3.139,3.139,0,0,1-.889-.813,1.825,1.825,0,0,1,.085-1.817,5.371,5.371,0,0,1,1.306-1.376c-.016-.974-1.358-1.636-1.168-2.593.154-.768,1.267-1.294.988-2.025a1.684,1.684,0,0,0-.575-.6,2.2,2.2,0,0,1-.178-3.22c.733-.614.181-1.919-.191-2.8-.307-.725-.926-1.389-.826-2.169a3.248,3.248,0,0,1,.684-1.307,1.531,1.531,0,0,0,.307-1.4c-.079-.184-.22-.335-.317-.511a2.157,2.157,0,0,1,.374-2.118,4.02,4.02,0,0,0,.922-2.027c.01-1.8-.98-3.26-2.021-4.726a2.322,2.322,0,0,1-.4-.713c-.3-1.121,1.268-1.906,1.437-3.055.2-1.361-1.615-2.327-1.583-3.7.028-1.163,1.333-2.126,2-2.979a6.292,6.292,0,0,0,1.319-4,1.415,1.415,0,0,0-.351-1.034c-.2-.179-.475-.247-.678-.419a1.192,1.192,0,0,1-.21-1.365,4.487,4.487,0,0,1,.893-1.172,5.544,5.544,0,0,0,1.281-2.1,2.907,2.907,0,0,0-.266-2.392,3.349,3.349,0,0,1-.5-.81,1.411,1.411,0,0,1,.311-1.232,9.53,9.53,0,0,1,.935-.931,3.144,3.144,0,0,0,.91-3.318c-.3-.707-.983-1.419-.663-2.119.33-.717,1.489-.747,1.78-1.48.744-.442-.4-1.333.051-2.075.328-.543,1.124-.673,1.42-1.234.32-.609-.122-1.359.007-2.035a2.018,2.018,0,0,1,1.054-1.248,7.464,7.464,0,0,0,1.423-.893,3.57,3.57,0,0,0,.893-2.531,18.809,18.809,0,0,1,.06-2.75,2.621,2.621,0,0,1,1.545-2.119c.587-.2,1.35-.14,1.684-.663a3.328,3.328,0,0,0,.237-.655,2.959,2.959,0,0,1,1.724-1.409c.475-.78-.456-2.021.218-2.639a2.626,2.626,0,0,1,1.1-.4,2.226,2.226,0,0,0,1.473-1.45,10.7,10.7,0,0,0,.167-2,1.633,1.633,0,0,1,1.1-1.529,3.062,3.062,0,0,1,.808.029,2.981,2.981,0,0,0,2.629-1.254c.241-.351.4-.752.652-1.1a1.409,1.409,0,0,1,1.042-.66c.279-.007.581.107.824-.033.368-.212.273-.8.569-1.109a1.674,1.674,0,0,1,.565-.29,4.2,4.2,0,0,0,1.446-1.478,15.012,15.012,0,0,1,1.25-1.378s2.244-2.569,2.37-3.334-.144,6.664,0,6.993-1.567,8.742-1.567,8.742l-8.349,18.868s-2.629,6.837-2.761,7.034-1.315,5-1.315,5l-1.578,5.588.854,7.363.066,13.937-2.038,9.311-1.971,5.575-1.709,10.423-1.906,8.415-2.237,7.758-.721,3.944-.528,1.433-1.708,1.078Z" transform="translate(-3344.346 -941.949)" fill="#658ac6"/>
      <path id="Tracé_95" data-name="Tracé 95" d="M3485.82,995.025c-.265-.713-.353-1.651.253-2.11a4.91,4.91,0,0,0,.608-.4c.695-.714-.525-1.849-.326-2.825.123-.6.744-.944,1.215-1.345a3.542,3.542,0,0,0,.9-4.03c-.384-.853-1.11-1.851-.539-2.59a2.08,2.08,0,0,1,.964-.564c1.288-.491,2.672-1.665,2.261-2.98-.262-.838-1.22-1.591-.849-2.388.338-.727,1.534-.708,1.857-1.444.446-1.016-1.252-1.814-1.267-2.924-.014-1.132,1.591-1.511,2.134-2.505a3.915,3.915,0,0,0,.14-2.166,1.9,1.9,0,0,1,.754-1.93c.367-.178.815-.135,1.172-.332.692-.381.665-1.379.461-2.141s-.474-1.644-.01-2.282a3.043,3.043,0,0,1,1.186-.777,5.575,5.575,0,0,0,2.968-4.2,3.254,3.254,0,0,1,.585-2.009c.229-.224.539-.355.751-.593a2.091,2.091,0,0,0,.392-1.08l.836-5.092A17.8,17.8,0,0,1,3503.6,957.8a52.2,52.2,0,0,1-3.82,11.116c-.728,1.692-1.459,3.384-2.29,5.028-1.731,3.43-3.914,6.7-4.807,10.44-.791,3.3-.52,6.764-.9,10.139-.251,2.21-1.02,7.592-4.265,6.9a2.532,2.532,0,0,1-2.051-2.007c-.08-.783.48-1.182.677-1.865A3.616,3.616,0,0,0,3485.82,995.025Z" transform="translate(-3341.411 -942.076)" fill="#141f46"/>
      <path id="Tracé_96" data-name="Tracé 96" d="M3475.784,1067.048c-.615-1.086.646-1.806,1.066-2.847.753-1.858.7-4.327.974-6.309.228-1.669.456-3.337.738-5,.117-.691.244-1.379.37-2.069l1.763-9.568a4.692,4.692,0,0,1,.495-1.591,6.623,6.623,0,0,0,.444-.714,1.4,1.4,0,0,0-.185-1.407l1.378-4.333a2.167,2.167,0,0,0,.139-1.242c-.128-.442-.537-.8-.523-1.262a1.732,1.732,0,0,1,.543-.964,8.3,8.3,0,0,0,1.4-4.613c.037-.445-.256-4.88-.989-4.715,2.494-.559,3.212-3.823,2.817-6.349s-1.365-5.2-.336-7.537a9.418,9.418,0,0,0,1.114-2.543c.122-1.049-.436-2.226.145-3.109.366-.558,1.067-.777,1.6-1.179,1.922-1.449,1.221-4.718,2.855-6.484a7.091,7.091,0,0,0,1.065-1.132c.732-1.276-.422-3.08.4-4.3.5-.737,1.593-1.014,1.847-1.865.241-.8-.363-1.863.268-2.412.384-.334.987-.211,1.445-.433,1.066-.518.54-2.176,1.038-3.251.577-1.242,2.431-1.465,3-2.712.4-.886-.017-1.931.156-2.889.293-1.623,2.067-2.425,3.475-3.281a12.038,12.038,0,0,0,4.8-5.577,22.318,22.318,0,0,1,1.44-3.386,15.806,15.806,0,0,1,2.576-2.744,21.341,21.341,0,0,0,5.2-7.981s.181-1.251-.06-1.472l.437,1.9-.159,9.232-.674,8.711-.805,14.068-3.008,6.163-6.558,10.108-4.076,6.92-2.1,5.226-3.156,4.569.9,12.483-9.171,28.883-3.395,9.052-1.437,2.636-3.61.854c-1.456-.888-4.689-2.039-5.6-3.447C3475.817,1067.1,3475.8,1067.076,3475.784,1067.048Z" transform="translate(-3343.56 -941.32)" fill="#3d5f9c"/>
      <path id="Tracé_97" data-name="Tracé 97" d="M3372.727,1016.983a34.078,34.078,0,0,0,14.014.206,14.808,14.808,0,0,1,3.116-.7c2.565-.023,5.148,2.064,7.48,1,1.239-.568,2.176-1.974,3.537-1.894,1.653.1,2.686,2.393,4.327,2.168a9.075,9.075,0,0,1,1.081-.238c1.183-.021,1.718,1.6,2.836,1.985.784.273,1.627-.128,2.454-.189,3.58-.264,5.435,5.5,9.01,5.161a3.272,3.272,0,0,1,1.585-.033c.812.345.861,1.465,1.35,2.2a4.213,4.213,0,0,0,1.786,1.261,39.457,39.457,0,0,1,4.642,2.748c3.053,2.042,6.668,4.379,10.115,3.111.724,3.267,3.532,5.6,6.2,7.614q8.7,6.571,17.877,12.47c2.43,1.561,5.213,3.741,4.83,6.6l-6.177,1.5h-6.358l-16.961-9.248-13.673-10.943-18.276-5.864-13.017-7.021-12.139-5.538Z" transform="translate(-3366.036 -926.944)" fill="#658ac6"/>
      <path id="Tracé_98" data-name="Tracé 98" d="M3406.449,1048.971a3.41,3.41,0,0,0,.712-.866,11.12,11.12,0,0,1,2.984-2.992l1.353.53a1.822,1.822,0,0,1,2.93-1.033,3.807,3.807,0,0,1,1.02-1.415,1.3,1.3,0,0,1,1.621-.028c.245.235.357.592.63.8.795.591,1.923-.627,2.845-.267a3.218,3.218,0,0,0,3.324,2.457,3.133,3.133,0,0,1,1.539-.009c.526.233.786.861,1.3,1.116.79.389,1.784-.257,2.6.079a7.529,7.529,0,0,1,.939.66c.949.582,2.154.1,3.254-.066a9.539,9.539,0,0,1,3.592.292c7.259,1.684,13.614,5.943,19.738,10.187,2.285,1.584,4.656,3.217,7.391,3.715,1.829.334,3.905.206,5.3,1.436.556.49.974,1.178,1.666,1.445.615.238,1.518.241,1.646.888a1.041,1.041,0,0,1-.333.851,4.5,4.5,0,0,1-3.638,1.259,20.334,20.334,0,0,1-3.887-.847,50.118,50.118,0,0,0-8.567-1.205,31.468,31.468,0,0,1-8-1.335c-1.664-.587-3.216-1.453-4.847-2.127-2.364-.976-4.881-1.543-7.24-2.527-5.058-2.113-9.369-6.133-14.775-7.031-2.766-.461-5.629-.056-8.381-.595a36.989,36.989,0,0,0-4.542-.988c-.911-.062-2.652.7-3.4.425-.81-.3-2.016,1.456-1.76.818a10.984,10.984,0,0,1,1.718-3.333A1.832,1.832,0,0,0,3406.449,1048.971Z" transform="translate(-3359.331 -920.979)" fill="#2c4d8a"/>
      <path id="Tracé_99" data-name="Tracé 99" d="M3440.351,1045.907s8.282,9.746,11.176,10.072,9.862.9,11.177,2.454,3.418,3.917,7.1,4.181c0,0,.369,4.47-2.511,4.865S3441.8,1064.437,3440.351,1045.907Z" transform="translate(-3351.264 -920.321)" fill="#141f46"/>
      <path id="Tracé_100" data-name="Tracé 100" d="M3403.082,1053.654a6.948,6.948,0,0,1,.448-2.38,2.366,2.366,0,0,1,1.8-1.469c.583-.057,1.161.179,1.745.141.865-.059,1.706-.71,2.524-.425.406.141.723.5,1.147.58a1.865,1.865,0,0,0,.918-.14l2.43-.8a3.237,3.237,0,0,1,1.2-.233c1.053.066,1.748,1.084,2.616,1.683,1.356.933,3.135.826,4.769,1.022a23.918,23.918,0,0,1,5.814,1.733l3.342,1.315,4.267,1.677,2.113.831a14.949,14.949,0,0,1,2.231,1.021c.352.211.687.449,1.042.657a12.69,12.69,0,0,0,5.947,1.286,3.992,3.992,0,0,0,.148,1.643l6.564.352a8.045,8.045,0,0,1,2.559.418,13.627,13.627,0,0,1,2.841,1.983,14.72,14.72,0,0,0,6.236-.208c2.712-.887,0,1.627,0,1.627s-7.79.789-10.7.642a30.346,30.346,0,0,1-10.9-3.107c-3.993-1.923-12.72-6.31-14.889-7.4s-4.931-3.056-8.678-3.6a95.839,95.839,0,0,0-12.327-1.243c-3.106.06-3.5.4-3.845.948A10.238,10.238,0,0,1,3403.082,1053.654Z" transform="translate(-3359.405 -919.662)" fill="#141f46"/>
      <path id="Tracé_101" data-name="Tracé 101" d="M3440.353,947.509c-.615,2.765,3.888,7.228,7.714,8.529a26.858,26.858,0,0,1,3.622,1.251,4.132,4.132,0,0,1,2.367,2.837,5.687,5.687,0,0,0,.232,1.479c.6,1.337,2.863,1.2,3.435,2.55.209.5.125,1.09.384,1.563.55,1.005,2.205.827,2.861,1.767.615.882,0,2.254.666,3.1.3.378.8.554,1.11.924.842,1-.143,2.578.292,3.808.588,1.659,3.31,1.727,3.851,3.4a12.028,12.028,0,0,1,.183,1.478c.475,2.47,4.434,2.962,4.915,5.431.307,1.573-1.006,3.332-.176,4.7.407.67,1.231,1.015,1.592,1.711.875,1.691-1.582,3.788-.674,5.461.591,1.09,2.4,1.416,2.441,2.656.022.661-.517,1.189-.809,1.784-.893,1.82.636,3.914,2.29,5.087.479.34,1.022.72,1.111,1.3a1.7,1.7,0,0,1-.156.879c-.346.855-.935,1.594-1.3,2.44a2.6,2.6,0,0,0,.106,2.631c.5.615,1.427.89,1.665,1.644.322,1.019-.842,1.837-1.3,2.8-1.142,2.416,2.178,3.794,1.6,5.812-.545,1.906-1.99,3.532.044,5.366a2,2,0,0,1,.565.631c.42.989-1.313,1.828-1.091,2.879.167.788,1.354,1.105,1.376,1.912.016.593-.612.963-.974,1.433a1.846,1.846,0,0,0,.115,2.314c.354.376.915.7.863,1.215-.044.427-.491.664-.826.931a2.454,2.454,0,0,0,.051,3.7,2.627,2.627,0,0,1,.837.718c.375.69-.306,1.453-.873,2s-1.057,1.535-.439,2.02a3.617,3.617,0,0,1,.519.341c.273.3.1.8-.168,1.1a3.871,3.871,0,0,0-.8.916c-.515,1.188,1.367,2.258,1.194,3.541-.113.839-1.048,1.318-1.365,2.1a2.776,2.776,0,0,0-.113,1.271,13.466,13.466,0,0,0,1.479,5.111c.642,1.229,1.427,2.874.416,3.825a2.214,2.214,0,0,1-2.584-.009c-.795-.477-1.42-1.2-2.214-1.673l-6.828-15.9-4.588-19.594-1.446-14.032-4.865-20.38-3.681-10.782-4.734-10.649-5.127-12.228-2.765-7.757S3437.59,950.673,3440.353,947.509Z" transform="translate(-3351.532 -941.815)" fill="#658ac6"/>
      <path id="Tracé_102" data-name="Tracé 102" d="M3493.281,1022.624a4.953,4.953,0,0,1,.543-5.973,4.522,4.522,0,0,0,1.192-1.444c.376-1.049-.43-2.316.122-3.285.527-.926,1.924-.926,2.634-1.719,1.107-1.231-.15-3.252.389-4.818.528-1.534,2.7-2.421,2.471-4.027-.1-.67-.635-1.289-.469-1.946.228-.9,1.54-1.045,2.006-1.852.451-.78-.049-1.906.523-2.6.545-.661,1.69-.462,2.292-1.071.993-1-.144-3.381,1.2-3.8.4-.121.869.034,1.212-.2.449-.3.324-.976.373-1.516.1-1.114,1.122-1.948,1.351-3.044.346-1.649-1.1-3.667.064-4.88.312-.323.75-.491,1.086-.788a2.967,2.967,0,0,0,.545-2.981,14.563,14.563,0,0,1-.814-3.078c-.072-1.9,1.3-3.491,2.213-5.152,1.509-2.733,1.857-5.933,2.177-9.037a37.179,37.179,0,0,0,.156-9.641s1.839,2.88,1.181,16.16-.657,25.638-1.183,27.741-7.757,22.878-7.757,22.878l-6.18,8.546-3.681,2.5Z" transform="translate(-3339.867 -941.32)" fill="#141f46"/>
      <path id="Tracé_103" data-name="Tracé 103" d="M3480.809,1064.215c-.334-.948,1.03-1.594,1.375-2.537a4.691,4.691,0,0,0-.066-1.946c-.049-.654.278-1.474.933-1.484a2.24,2.24,0,0,0,.642.021c.282-.091.395-.427.446-.72.373-2.118-.334-4.266-.415-6.416a1.869,1.869,0,0,1,.137-.92,2.624,2.624,0,0,1,.625-.675,4.433,4.433,0,0,0,1.4-3.537c-.03-.394-.081-.866.232-1.106.169-.129.4-.145.584-.263a1.073,1.073,0,0,0,.382-.636c.6-2.112-.27-4.679,1.112-6.383.332-.411.8-.774.867-1.3.134-.993-1.2-2.058-.531-2.8.3-.334.825-.3,1.266-.394,1.42-.306,2.041-2.075,1.793-3.507-.166-.964-.6-1.874-.7-2.849a2.264,2.264,0,0,1,1.213-2.434c.338-.116.713-.108,1.038-.256a1.751,1.751,0,0,0,.889-1.4c.078-.573,0-1.155.019-1.733a4.935,4.935,0,0,1,1.67-3.421,4.734,4.734,0,0,1,1.628-.98c.579-.2,1.16.127,1.377-.787a3.951,3.951,0,0,0-.168-1.684,1.865,1.865,0,0,1,.244-1.625c.7-.78,2.193-.258,2.874-1.052.719-.838-.191-2.2.251-3.215.479-1.093,2.135-1.053,2.9-1.968a3.813,3.813,0,0,0,.41-2.725c-.055-.942.146-2.092,1.026-2.432.6-.232,1.284.024,1.918-.091a2.575,2.575,0,0,0,1.767-2.491c.08-1.094-.195-2.194-.086-3.286a1.344,1.344,0,0,1,.128-.507c.394-.741,1.535-.431,2.3-.772.986-.44,1.076-1.785.982-2.861-.147-1.687.076-2.423,1.51-3.1,1.618-.759,1.177-2.235,1.338-3.849a1.167,1.167,0,0,1,.245-.7c.574-.617,1.939.152,2.319-.6.295-.585-.525-1.251-.324-1.874.163-.506.827-.576,1.322-.769a2.905,2.905,0,0,0,1.582-2.494c.107-1.031-.089-2.069-.064-3.1.017-.742.367-1.678,1.108-1.658.308.009.618.2.91.1.375-.128.453-.627.4-1.02a1.684,1.684,0,0,1,.053-1.161c.571-.876,2.087.349,2.955-.235.792-.534.35-2.126,1.25-2.447.832-.3,1.585,1,2.437.763.915-.253.73-1.887,1.627-2.2.849-.3,1.671.947,2.523.66.608-.2.817-1.087,1.448-1.211.539-.106.971.406,1.384.77a3.232,3.232,0,0,0,3.269.564c.72-.288,1.45-.852,2.183-.6.424.146.608.708,1.038.836,1.782.535,6.431,1.524,7.665.586l-6.376,2.052-2.893,2.564-3.549,4.011-2.366,3.154-3.222,5.326-4.832,8.283s-3.484,12.852-3.484,13.377-3.156,10.65-3.156,10.65l-.79,5.522-1.708,4.207-5.26,5-1.84,2.5-1.841,12.227-14.463,20.643-8.546,9.334-3.551,5.654-6.178,2.236-.79-6.312.79-7.231Z" transform="translate(-3343.344 -937.747)" fill="#658ac6"/>
      <path id="Tracé_104" data-name="Tracé 104" d="M3500.178,1040.136a5.417,5.417,0,0,1,.6-4.8,5.342,5.342,0,0,0,.848-1.4c.257-.882-.116-2.042.61-2.6.6-.463,1.489-.113,2.208-.352,1.12-.372,1.284-1.862,1.246-3.041a2.581,2.581,0,0,0,1.7-.931l1.375-1.311a4.843,4.843,0,0,0,1.155-1.422,7.656,7.656,0,0,1,.715-1.786c.409-.5,1.117-.7,1.477-1.239.462-.691.171-1.629.378-2.434.436-1.695,2.711-2.068,3.854-3.393,1.091-1.261,1.088-3.331,2.455-4.284.956-.664,2.379-.608,3.084-1.534.923-1.209.1-3.468,1.464-4.14.666-.329,1.517-.017,2.183-.349.435-.216.7-.662,1.063-.982s.982-.491,1.3-.127c.254-1.17.725-2.565,1.9-2.79.785-.151,1.6.317,2.377.114,1.657-.432,1.34-3.122,2.706-4.157,1.472-1.117,4.166.227,5.177-1.321.508-.777.372-2.087,1.256-2.375a2.869,2.869,0,0,1,.738-.062,6.043,6.043,0,0,0,2.7-1.342c.862-.547,2.077-.887,2.837-.207.023-.936,1.132-1.468,2.066-1.444a18.212,18.212,0,0,0,2.787.258c.927-.121,1.861-1.066,1.459-1.91,5.712.346,9.391-.224,16.229-1.232l-4.339,5.522L3558.7,997l-13.278,10.124-8.546,7.363-2.981,4.964-4.381,3.187-8.941,6.706s-10.387,6.837-10.781,7.23S3500.178,1040.136,3500.178,1040.136Z" transform="translate(-3338.262 -933.072)" fill="#2c4d8a"/>
      <path id="Tracé_105" data-name="Tracé 105" d="M3509.153,1055.385l2.159,1.445a1.094,1.094,0,0,0,.638.252.965.965,0,0,0,.589-.328c.765-.755,1.424-1.928,2.495-1.844a9.673,9.673,0,0,1,1.088.3c2.044.411,3.231-2.735,5.313-2.886a23.477,23.477,0,0,1,2.428.406c1.959.063,3.162-2.014,4.518-3.429a1.161,1.161,0,0,1,.7-.427c.726-.051.951,1.036,1.6,1.37.669.344,1.43-.242,1.906-.825s1.05-1.276,1.8-1.187c.934.112,1.238,1.3,1.316,2.236a4.675,4.675,0,0,0,4.347-1.071,3.037,3.037,0,0,1,.895-.7,1.192,1.192,0,0,1,1.384,1.619c2.192.687,4.273-1.232,6.5-1.8a1.271,1.271,0,0,1,.683-.033c.5.154.658.753.931,1.194a2.756,2.756,0,0,0,2.449,1.137,8.1,8.1,0,0,0,2.716-.73,4.405,4.405,0,0,0,4.385,4.3c.981-.037,2.187-.325,2.769.465a3.007,3.007,0,0,1,.373,1.1c.638,2.646,3.388,4.118,5.858,5.264a4.432,4.432,0,0,1-3.967.239,59.242,59.242,0,0,0-6.968-1.973l-13.017.263-14.989.92-14.068,1.841-4.471.658-4.207,3.681-10.781.131-2.1-4.207,8.415-4.6Z" transform="translate(-3339.454 -919.815)" fill="#2c4d8a"/>
      <path id="Tracé_106" data-name="Tracé 106" d="M3507.578,1062.123c2.706-2.232,6.526-2.292,10.029-2.487,3.083-.172,6.324-.593,8.791-2.45a3.76,3.76,0,0,1,1.081-.671c1.537-.484,2.772,1.449,4.355,1.745,1.774.331,3.332-1.465,5.137-1.437.975.016,1.873.568,2.846.63,1.465.094,2.81-.925,4.278-.928a13.72,13.72,0,0,1,3.115.788,11.675,11.675,0,0,0,2.952.191l7.319-.147a5.217,5.217,0,0,1,2.813.47l1.849,1.829s-1.709-1.841-16.041-1.053-28.794,1.709-30.9,2.1S3507.578,1062.123,3507.578,1062.123Z" transform="translate(-3336.579 -918.021)" fill="#141f46"/>
      <path id="Tracé_107" data-name="Tracé 107" d="M3537.186,1016.558c-.1,1.018,1.16,1.741,2.154,1.5a4.5,4.5,0,0,0,2.323-1.913q1.1-1.489,2.06-3.081c1.1-.764,2.57.2,3.911.184,2.838-.043,4.244-4.363,7.079-4.246,1.125.046,2.149.833,3.272.742,1.946-.157,2.833-2.719,4.695-3.3,1.736-.545,3.576.833,5.37.525,2.193-.378,3.534-3.117,5.76-3.133.988-.007,1.995.553,2.925.218.893-.322,1.455-1.4,2.4-1.446a3.687,3.687,0,0,1,1.748.726,3.675,3.675,0,0,0,3.751-.266c.6-.431,1.1-1.066,1.83-1.223a4.944,4.944,0,0,1,2.341.507,4.333,4.333,0,0,0,3.48-.492,3.5,3.5,0,0,1,1.778-.861,3.244,3.244,0,0,1,1.5.654,5.414,5.414,0,0,0,5.014.2,6.064,6.064,0,0,1,2.628-1.059,4.86,4.86,0,0,1,1.683.524,9.273,9.273,0,0,0,4.927.59s-7.062,3.776-7.654,4.171-13.608,5.917-13.608,5.917l-15.58,8.48-16.765,12.819-14.4,11.832-14.4,9.467-11.241,6.705-9.071,6.114-10.584,5.719-3.615,4.339-8.114-2.573,9.691-16.163,18.735-20.117,14.4-16.763,6.311-3.156Z" transform="translate(-3341.557 -930.177)" fill="#2c4d8a"/>
      <path id="Tracé_108" data-name="Tracé 108" d="M3491.639,1075.339c2.008-2.032.492-6.338,2.988-7.729,2.113-1.177,5.049,1.141,7.056-.21,1.31-.882,1.418-2.871,2.644-3.865,2.081-1.685,5.609.621,7.742-1,1.289-.976,1.41-2.955,2.619-4.028,1.895-1.679,5.062-.173,7.328-1.3,2.9-1.446,2.85-6.355,5.919-7.392,1.485-.5,3.4.074,4.483-1.056,1.375-1.433.326-4.614,2.21-5.237a3.74,3.74,0,0,1,1.6.021,6.947,6.947,0,0,0,7.123-4.365c.594-1.613.913-3.809,2.6-4.147a8.285,8.285,0,0,1,1.778.065c2.214.041,3.854-2.062,4.694-4.11s1.338-4.356,2.929-5.894a1.816,1.816,0,0,1,.834-.515c1.084-.236,1.812,1.156,2.874,1.479,2.151.654,3.2-3.074,5.411-3.469a10.326,10.326,0,0,0,1.279-.145,3.684,3.684,0,0,0,1.556-1.423,7.918,7.918,0,0,1,5.922-2.895c.812-.015,1-.7,1.144-1.5s.235-1.746.934-2.158a2.83,2.83,0,0,1,1.782-.106,8.562,8.562,0,0,0,7.338-2.792,4.9,4.9,0,0,1,1.652-1.507,5.282,5.282,0,0,1,2.4-.038,6.839,6.839,0,0,0,4.685-1.4,9.025,9.025,0,0,1,1.793-1.314,13.589,13.589,0,0,1,2.507-.48c1.747-.4,3.073-1.778,4.6-2.709a19.27,19.27,0,0,1,3.858-1.635c2.31-.787,4.712-1.584,7.139-1.326,0,0-14.173,6.552-19.826,9.444s-15.646,7.625-17.749,9.466-8.153,5.391-12.1,9.335-16.434,13.017-20.248,15.777-23.666,15.384-26.558,17.356-3.813,2.1-7.231,4.207-14.726,8.809-15.909,9.2A1.543,1.543,0,0,1,3491.639,1075.339Z" transform="translate(-3340.06 -930.106)" fill="#141f46"/>
      <path id="Tracé_109" data-name="Tracé 109" d="M3477.248,1067.608l-8.206-.031-3.681-1.315c-1.552-.846-5.7-3.728-7.25-4.574a5.741,5.741,0,0,0-3.723-5.327,4,4,0,0,1-1.282-.567c-.83-.69-.664-1.971-.615-3.05a9.115,9.115,0,0,0-1.234-4.993c-.869-1.482-2.121-3.485-.848-4.637l-2.19-.507,1.3-6.744a8.212,8.212,0,0,0-1.589-5.68c2.334-7,3-14.241.991-21.34a13.347,13.347,0,0,0,7.133,9.651,2.221,2.221,0,0,1,1.032.768,2.88,2.88,0,0,1,.084,1.616,4.479,4.479,0,0,0,1.974,3.968c-1.712-15.037-3.5-30.359-9.762-44.137-2.482-5.459-5.639-10.608-7.83-16.19s-3.417-11.417-1.758-17.179a12.44,12.44,0,0,0,5.415,11.882c.9.585,2.016,1.289,1.94,2.36a5.858,5.858,0,0,1-.378,1.21,2.638,2.638,0,0,0,3.311,3.041c-.641.824-.174,2.045.488,2.849a6.784,6.784,0,0,1,1.768,2.539,6.226,6.226,0,0,1-.236,2.478,17.2,17.2,0,0,0,.7,7.061,3.384,3.384,0,0,1,3.291,3.169c.016.606-.136,1.2-.161,1.809a8.652,8.652,0,0,0,.532,2.857,18.016,18.016,0,0,0,1.887,4.6,5.049,5.049,0,0,1,.871,1.659c.183.921-.3,1.913.021,2.8a9.406,9.406,0,0,0,1.043,1.5c1.4,2.3-1.32,5.724.387,7.808.428.523,1.107.894,1.26,1.552.2.879-.667,1.7-.591,2.6a3.345,3.345,0,0,0,.678,1.4,10.918,10.918,0,0,1,1.187,3.311l1.311,5.452c.9,3.73,1.8,7.532,1.505,11.357-.138,1.8-.458,3.875.778,5.194.429.458,1.008.764,1.4,1.251,1.76,2.177-1.087,6.24,1.13,7.951.392.3.9.471,1.187.878a2.684,2.684,0,0,1,.148,1.84c-.241,2.166.567,4.3,1.362,6.327,1.83,4.677,3.4,6.847,5.227,11.523" transform="translate(-3351.555 -941.852)" fill="#2c4d8a"/>
      <path id="Tracé_110" data-name="Tracé 110" d="M3479.038,1074.79c-.1-1.823,2.08-4.746,3.629-5.712a4.379,4.379,0,0,0,.95-.663c.691-.745.488-1.913.637-2.918s1.312-2.065,2.056-1.372l.585-4.339a2.433,2.433,0,0,1,.409-1.251c.5-.608,1.42-.6,2.117-.961,1.765-.917,1.433-3.664,2.774-5.133,1.072-1.175,3.081-1.371,3.776-2.8.59-1.212.066-3.029,1.22-3.724.6-.362,1.444-.213,1.978-.67.636-.543.449-1.562.752-2.342.369-.95,1.429-1.456,1.936-2.341.857-1.5-.03-3.738,1.236-4.91.747-.691,1.889-.637,2.879-.871,1.78-.419,3.14-1.815,4.394-3.149l1.524-1.62a6.063,6.063,0,0,0,1.248-1.683,13.786,13.786,0,0,1,.725-2.075c.707-1.11,2.32-1.384,2.989-2.517a14.629,14.629,0,0,1,.736-1.609c.592-.768,1.756-.858,2.418-1.563,1.228-1.307.223-4.057,1.834-4.847,1.076-.528,2.635.34,3.454-.536a2.584,2.584,0,0,0,.475-1.058c1.176-3.869,5.006-6.011,8.489-8.232-.065,2.615.329,11.95-2.037,17.341s-4.6,13.017-21.826,28.926-23.141,22.483-23.141,22.483l-4.208-.526Z" transform="translate(-3342.813 -929.062)" fill="#141f46"/>
      <path id="Tracé_111" data-name="Tracé 111" d="M3523.679,1023.558a4.72,4.72,0,0,1,1.641-2.8c.456-.374,1.011-.694,1.228-1.243.306-.77-.081-1.886.63-2.311.24-.144.543-.149.785-.291.681-.407.4-1.539.947-2.116.4-.429,1.079-.384,1.661-.479a3.108,3.108,0,0,0,2.511-3.144,2.868,2.868,0,0,0,2.459-1.67,25.718,25.718,0,0,0,1.09-2.938,1.365,1.365,0,0,1,.458-.671,1.343,1.343,0,0,1,.752-.156c1.434.015,3.206.345,4.016-.838.434-.635.478-1.612,1.183-1.917.58-.25,1.359.111,1.83-.308.514-.454.136-1.31.312-1.974.445-1.686,3.778-.988,4.138-2.694.138-.658-.285-1.45.152-1.96.384-.447,1.112-.278,1.625.013a2.477,2.477,0,0,0,1.629.557c1.353-.286.931-2.7,2.167-3.317a2.572,2.572,0,0,1,1.07-.171,10.077,10.077,0,0,0,6.206-2.443c.5-.435.955-.917,1.41-1.4l3.242-3.441s.459,3.5-4.011,7.708a58.742,58.742,0,0,1-14.332,10.256c-5.127,2.5-11.044,7.625-14.2,11.044s-5.391,5.522-6.706,7.363-4.207,4.207-5.785,4.6S3523.679,1023.558,3523.679,1023.558Z" transform="translate(-3333.564 -933.44)" fill="#141f46"/>
      <path id="Tracé_112" data-name="Tracé 112" d="M3480.636,1064.555a7.144,7.144,0,0,1,.568-5.166,13.067,13.067,0,0,0,.782-1.488c.642-1.712-.157-3.687.381-5.435a9.518,9.518,0,0,1,1.129-2.11,13.992,13.992,0,0,0,2.162-7.43,15.135,15.135,0,0,1,.045-3.222,2.82,2.82,0,0,1,1.979-2.315c-.234-1.59-.375-3.465.812-4.55a15.854,15.854,0,0,0,1.553-1.177c1.542-1.807-.994-5.172.752-6.784.269-.249.609-.408.877-.659a2.559,2.559,0,0,0,.7-1.513c.19-1.266-.133-2.57.075-3.833s1.31-2.573,2.553-2.265a2.675,2.675,0,0,0,.834.191,1.107,1.107,0,0,0,.8-.61c.813-1.416.2-3.728,1.682-4.412.638-.295,1.432-.1,2.047-.442.731-.4.906-1.346,1.234-2.115a4.459,4.459,0,0,1,3.046-2.55c.128-1.519.16-2.685.286-4.2a1.9,1.9,0,0,1,.217-.871c.544-.857,1.9-.366,2.845-.741,1.059-.422,1.311-1.8,1.246-2.94s-.255-2.4.425-3.315c.844-1.135,2.852-1.478,2.907-2.893.03-.812-.677-1.661-.262-2.358.381-.642,1.332-.514,2.035-.768a2.527,2.527,0,0,0,1.454-1.964,12.827,12.827,0,0,0,.055-2.55,1.4,1.4,0,0,1,.21-.9c.451-.564,1.7-.551,1.58-1.264-.266-1.582-.207-3.28,1.223-4.005.271-.138.572-.207.836-.354.95-.53,1.107-1.849.883-2.913a3.456,3.456,0,0,1-.149-1.326c.082-.441.484-.865.924-.777.265.052.506.278.768.213.56-.135.15-1.031.377-1.561.327-.764,1.459-.216,2.29-.2,1.327.026,2.024-1.53,2.375-2.81a1.346,1.346,0,0,0,2.244,0c.188-.347.236-.805.57-1.016.668-.423,1.4.631,2.193.6.5-.021.867-.472,1.31-.715a4,4,0,0,1,2.649-.01,2.4,2.4,0,0,0,2.478-.607c.015.573.74.844,1.307.776a4.814,4.814,0,0,1,1.692-.184c1.132.278,1.808,2.043,2.9,1.645" transform="translate(-3342.517 -937.683)" fill="none"/>
      <path id="Tracé_113" data-name="Tracé 113" d="M3510.151,1026.26c-.589-.945-1.2-2.085-.773-3.114.409-.993,1.587-1.4,2.325-2.177,1.042-1.106,1.07-2.818.83-4.318a12.424,12.424,0,0,1-.37-4.514c.363-1.709,1.661-3.038,2.566-4.532a21.326,21.326,0,0,0,1.877-4.588l3.993-12.437a4.962,4.962,0,0,0,3.5-3.522,43.951,43.951,0,0,0,.966-5.121,6.318,6.318,0,0,1,2.627-4.329c.708-.41,1.674-.784,1.694-1.6.008-.335-.165-.675-.063-.993.228-.719,1.28-.428,2.034-.386a2.168,2.168,0,0,0,1.917-3.044c.58-.539,1.622.034,2.28-.406.443-.3.508-.905.725-1.393.521-1.168,1.934-1.619,3.2-1.8a18.071,18.071,0,0,1,4.845-.043s-.032.638-3.451,1.3-7.888,6.31-9.861,10.124-5.39,6.968-6.968,13.147-5.258,15.778-5.521,18.539a23.563,23.563,0,0,0,.131,5.26l-1.314,5.127-3.288,3.156Z" transform="translate(-3336.216 -937.384)" fill="#2c4d8a"/>
      <path id="Tracé_114" data-name="Tracé 114" d="M3371.171,1016.805c-2.621-1.326,5.792.989,8.688,1.484a8.35,8.35,0,0,1,2.758.807c1.031.585,1.789,1.594,2.868,2.08a9.987,9.987,0,0,0,3,.519c6.06.7,11.062,6.336,17.141,5.8a3.882,3.882,0,0,1,2.186.136c1.286.689,1.111,2.719,2.213,3.674.891.773,2.229.552,3.4.688a5.3,5.3,0,0,1,4.32,3.514l1.519-.4a4.357,4.357,0,0,0,7.913,1.747c.446,1.232,1.054,2.622,2.313,2.984,1.175.336,2.494-.381,3.626.078,1.349.547,1.565,2.309,2.147,3.643.891,2.046,2.908,3.33,4.814,4.49l13.337,8.117,7.547,4.741v3.971s-23.752-12.813-27.276-14-18.61-7.495-22.653-9.367-10.848-4.832-12.525-6.016-5.719-5.227-7.3-6.41-3.944-3.057-7.1-5.127S3372.23,1017.343,3371.171,1016.805Z" transform="translate(-3366.485 -926.766)" fill="#141f46"/>
      <path id="Tracé_115" data-name="Tracé 115" d="M3391.314,979.779c-1.245-.812,2.156,2.025,3.359,2.9,1.68,1.221,3.916,1.262,5.888,1.915a14.768,14.768,0,0,1,6.317,4.7c1.728,2.019,3.19,4.257,4.969,6.232,1.3,1.445,3.11,2.841,5.005,2.4a2.5,2.5,0,0,1,.83-.134c.877.1,1.074,1.27,1.078,2.153.006,1.182.173,2.526,1.133,3.213.59.423,1.367.5,1.98.89,1.216.773,1.4,2.437,2.065,3.714a4.977,4.977,0,0,0,3.562,2.567,10.192,10.192,0,0,1,1.883.3c1.645.593,2.18,2.587,3.07,4.093a7.461,7.461,0,0,0,4.823,3.454,3.8,3.8,0,0,1,1.681.564,2.934,2.934,0,0,1,.745,1.137q.846,1.9,1.545,3.852c1.147,3.214,3.649,5.673,5.738,8.372l4.991,6.448a17.619,17.619,0,0,0,2.908,3.182c1.317,1.037,3.044,1.844,3.523,3.451a11.636,11.636,0,0,1,.235,1.541,10.675,10.675,0,0,0,2.3,4.464l3.879,5.256c1.1,1.491,2.26,3.285,1.733,5.06,0,0-18.066-24.749-22.4-29.427s-9.342-11.516-13.15-14.54-10.659-10.126-14.138-13.872-11.1-11.766-13.077-12.95-6.4-4.065-7.757-6.048A22.177,22.177,0,0,0,3391.314,979.779Z" transform="translate(-3362.034 -934.798)" fill="#141f46"/>
      <path id="Tracé_116" data-name="Tracé 116" d="M3469.422,1056.95c2.857,2.181,5.164,5.343,5.5,8.923q4.014-.053,8.024.177l-.73-7.389a9.882,9.882,0,0,1,.44-5.269c.91-1.892,2.934-3.033,3.956-4.866.23-.413.368-1.015-.015-1.293a1.083,1.083,0,0,0-.541-.151l-11.263-1.1a5.853,5.853,0,0,0-2.38.1c-1.65.538-2.557,2.431-4.193,3.011a11.441,11.441,0,0,1-3.138.227c-2.487.16-5.152,1.54-3.283,3.573C3463.381,1054.613,3467.4,1055.407,3469.422,1056.95Z" transform="translate(-3346.717 -920.321)" fill="#141f46"/>
      <path id="Tracé_117" data-name="Tracé 117" d="M3443.941,1058.245c1.379-.618,3.114-.992,3.712-2.38.569-1.32-.217-2.975.48-4.233.964-1.74,3.933-1.364,4.942-3.078a10.876,10.876,0,0,0,.613-2.083c.581-1.7,2.448-2.619,4.221-2.9,5.479-.863,10.75,2.659,16.3,2.75,1.87.031,3.725-.331,5.593-.446,4.043-.245,8.057.677,12,1.594-4.558,2.631-11.012-1.668-15.383,1.264a20.652,20.652,0,0,1-1.86,1.338c-2.207,1.143-5.081-.219-7.313.872a9.549,9.549,0,0,0-2.792,2.737c-3.157,3.747-7.8,5.612-12.464,6.659a32.084,32.084,0,0,1-7.487,1.137C3441.849,1061.4,3440.886,1059.612,3443.941,1058.245Z" transform="translate(-3350.894 -920.86)" fill="#658ac6"/>
    </g>
    <path id="Tracé_118" data-name="Tracé 118" d="M3484.033,1061.875c-33.241,0-60.187-1.091-60.187-2.437v15.6h118.695l1.682-15.6C3544.222,1060.784,3517.274,1061.875,3484.033,1061.875Z" transform="translate(12.366 25.471)" fill="#e28d90"/>
  </g>
</svg>
