<svg xmlns="http://www.w3.org/2000/svg" width="428.054" height="548" viewBox="0 0 428.054 548">
  <g id="Plant_Gauche" data-name="Plant Gauche" transform="translate(-1308.622 -211.706)">
    <path id="Tracé_54" data-name="Tracé 54" d="M1411.255,550.351s-21.75.962-35.127-11.55-20.884-31.374-20.884-31.374,16.072-.674,18.766-.1,5.968,1.154,7.8,2.5c0,0-2.7-7.026-17.9-13.185,0,0-15.109-5.293-16.552-5.774,0,0-8.229-22.039-10.394-29.4s-4.043-13.28-4.043-13.28,13.137,2.309,20.5,9.094c0,0-17.9-17.757-23.819-21.221,0,0-6.785-31.182-8.084-37.678s-7.94-33.781-10.25-38.544-3.9-15.3-1.3-15.447,13.281,11.982,21.509,23.964,25.264,31.038,25.264,31.038-3.031,12.414-2.454,15.735c0,0,3.753-11.982,4.764-12.27s27.283,38.832,27.283,38.832,33.781,57.022,36.812,67.417,5.341,27.283-.434,34.069-7.8,6.063-7.8,6.063,19.056,55.867,21.943,69l-4.042-.289s-10.827-37.533-13.569-46.05S1411.255,550.351,1411.255,550.351Z" transform="translate(0 -1.312)" fill="#658ac6"/>
    <path id="Tracé_55" data-name="Tracé 55" d="M1425.99,538.285c2.063-8.135.148-20.265-2.229-28.418-3.032-10.394-36.812-67.417-36.812-67.417s-7.588-11.3-14.766-21.708c-.5,2.853-5.324,34.2,14.766,71.08C1400.093,515.949,1415.929,530.641,1425.99,538.285Z" transform="translate(-0.62 -2.068)" fill="#141f46"/>
    <g id="Groupe_11" data-name="Groupe 11" transform="translate(1343.677 222.747)">
      <path id="Tracé_56" data-name="Tracé 56" d="M1348.123,224.472c-9.01,8.8-.612,34.146,1.215,48.757.635,5.085,2.49,20.085,5.672,40.151l24.888,7.53C1365.995,277.964,1352.247,236.789,1348.123,224.472Zm72.155,95.683c-10.05-22.127-17.675-36.1-20.9-43.462a85.368,85.368,0,0,0-6.871-11.572c-3.583,2.387-15.505,8.349-15.505,8.349s8.232-8.224,13.605-11.114c-12.481-17.856-33.689-42.628-40.889-39.172-.058.037-.107.082-.164.12,4.955,14.8,26.722,79.961,44,134.567C1397.522,351.37,1412.236,327.622,1420.278,320.155Zm-18.549,69.776c-6.046-19.828-13.615-43.621-21.182-67.016l-25.234-7.634c1.808,11.287,4.029,24.086,6.674,37.568a39.017,39.017,0,0,0,6.5-3.3,34.506,34.506,0,0,1,11.549-4.331s-7.362,3.321-9.816,5.486c-1.427,1.258-4.894,3.731-7.554,5.585,2.368,11.847,5.062,24.159,8.094,36.4,12.746,8.566,33.88,25.129,41.428,31.093C1408.838,413.065,1405.319,401.7,1401.73,389.931Zm54.242,106.189c3.377-12.893,6.494-45.382-2.917-86.706-8.313,7.5-24.223,22.129-24.223,22.129s7.435-13.29,23.292-26.078a269.528,269.528,0,0,0-8.856-29.068q-2.2-5.976-4.341-11.567c-5.356,3.72-11.394,8.248-11.394,8.248s6.127-8.7,9.606-12.873q-2.329-5.972-4.58-11.492c-.691.715-1.272,1.268-1.272,1.268s-9.672,6.5-12.7,11.4c0,0,1.3-7.362,11.4-13.569.675-.416,1.261-.761,1.776-1.052-3.792-9.247-7.4-17.553-10.745-24.97-7,6.774-19.963,26.964-26.764,38.274,3.266,10.339,6.36,20.268,9.133,29.36,3.859,12.66,7.639,24.851,11.219,36.269l.33.262-.178.223c14.343,45.727,25.44,78.876,25.578,79.289l-1.643.55c-.139-.413-11.237-33.565-25.582-79.3-4.366-3.464-27.48-21.726-41.717-31.509,5.612,22.278,12.349,44.182,20.288,62.412,27.717,50.045,50.045,51.97,50.045,51.97l3.561-.385,6.929,56.3,2.887-13.859-5.966-43.115S1453.181,506.032,1455.972,496.12Z" transform="translate(-1344.027 -222.858)" fill="#1c3e7a"/>
    </g>
    <g id="Groupe_13" data-name="Groupe 13" transform="translate(1482.729 211.706)">
      <g id="Groupe_12" data-name="Groupe 12">
        <path id="Tracé_57" data-name="Tracé 57" d="M1628.62,266.392q-2.664,1.931-5.48,4.017l3.768,29.067Zm103.6-54.675c-5.4-.491-37.566,16.159-63.757,30.029.627,5.873,1.106,14,1.106,14a24.455,24.455,0,0,1-3.465-8.373,25.8,25.8,0,0,1-.419-4.155c-3.588,1.9-7.043,3.742-10.264,5.456-5.123,2.725-13.726,8.333-24.4,15.987L1629,303.724c42.79-40.214,85.882-72.631,108.056-88.576A5.888,5.888,0,0,0,1732.221,211.717Zm-155.631,146.5a683.831,683.831,0,0,1,48.963-51.233l-4.538-34.991c-8.513,6.356-17.891,13.655-27.605,21.577,5.75,15.537,4.847,21.8,4.847,21.8s-4.425-11.405-7.963-19.244c-11.223,9.242-22.815,19.262-33.983,29.6l13.275,40.927C1571.952,363.724,1574.25,360.958,1576.59,358.215Zm161.317-140.821c-31.845,22.954-105.454,78.9-159.562,142.319-2.274,2.667-4.521,5.369-6.846,8.239l81.684,17.816q5.577-7.968,10.63-15.4c-8.132-2.807-27.115-9.222-32.067-9.671-6.352-.577-30.026-8.661-30.026-8.661s9.239-2.887,37.533,4.042c15.312,3.751,25.2,4.623,31.066,4.637,7.032-10.544,13.266-20.255,18.806-29.2a72.191,72.191,0,0,0-9.451-4.881l10.911,2.518q3.521-5.731,6.657-11.031l-44.708-15.163,48.451,8.771c6.872-11.882,12.307-22.106,16.646-30.9-22.127-6.459-31.605-13.674-31.605-13.674s13.563.006,33.951,8.841a304.184,304.184,0,0,0,15.131-37.712C1738.347,228.887,1739.041,221.86,1737.907,217.394ZM1507.791,504.849l.008.578-2.31.028-.008-.576c-.008-.572-.034-58.013,62.373-136.08l-13.41-41.347c-15.224,14.2-29.551,28.923-40.947,42.964a153.152,153.152,0,0,1,17.632,25.505s-11.838-10.25-14.87-13.715c-1.338-1.529-3.967-4.378-6.49-7.085a146.811,146.811,0,0,0-15.431,23.859c3.176,4.109,6.592,8.553,7.918,10.366,2.744,3.753,11.26,21.366,11.26,21.366s-5.342-3.465-12.559-14.869a79.656,79.656,0,0,0-8.929-11.771,56.12,56.12,0,0,0-2.332,6.863c-15.013,46.484,6.063,92.967,16.168,100.282,6.545,3.85,24.26.521,38.111-2.118,17.07-7.187,24.514-10.186,37.71-25.421-4.42-.77-9.976-1.872-16.923-3.451-25.407-5.774-39.843-16.746-39.843-16.746s16.746.577,28.294,4.619c9.016,3.155,20.852,7.006,33.85,9.1,8.858-11.061,20.439-27.177,37.962-51.788-12.223-1.668-26.08-5.285-34.278-8.7-13.859-5.774-40.421-12.7-40.421-12.7s13.859-2.309,48.505,7.507c14.729,4.173,24.958,5.629,31.866,5.928,4.582-6.441,9.531-13.4,14.907-20.941q3.149-4.42,6.141-8.68l-81.868-17.855C1507.763,447.526,1507.783,504.283,1507.791,504.849Z" transform="translate(-1484.468 -211.706)" fill="#1c3e7a"/>
      </g>
    </g>
    <path id="Tracé_58" data-name="Tracé 58" d="M1477.5,622.645s19.345-100.185,27.717-110.868" transform="translate(-1.67 -2.968)" fill="none" stroke="#1c3e7a" stroke-width="4"/>
    <path id="Tracé_59" data-name="Tracé 59" d="M1508.412,619.686,1531.8,593.7s3.176-14.148,8.084-19.345,2.6-10.682,13.859-24.252,25.7-23.676,56.589-32.914,41.576-12.7,41.576-12.7a59.617,59.617,0,0,0-9.816,7.507c-4.042,4.043-48.216,37.822-73.046,53.7,0,0-27.428,26.851-33.781,33.781s-20.787,20.21-20.787,20.21Z" transform="translate(-1.976 -2.896)" fill="#658ac6"/>
    <g id="Groupe_14" data-name="Groupe 14" transform="translate(1621.401 211.706)">
      <path id="Tracé_60" data-name="Tracé 60" d="M1630.444,303.724c42.79-40.214,85.882-72.631,108.056-88.576a5.888,5.888,0,0,0-4.835-3.431c-6.352-.577-49.659,22.521-76.8,36.957-5.123,2.725-13.726,8.333-24.4,15.987Z" transform="translate(-1624.584 -211.706)" fill="#658ac6"/>
      <path id="Tracé_61" data-name="Tracé 61" d="M1630.005,266.938q-2.664,1.931-5.48,4.017l3.768,29.067Z" transform="translate(-1624.525 -212.253)" fill="#658ac6"/>
    </g>
    <path id="Tracé_62" data-name="Tracé 62" d="M1455.637,543s1.347-28.873,1.733-37.149,8.276-52.354,9.624-60.631,6.737-39.073,8.084-44.078,3.464-16.169,3.464-20.98,3.079-10.2,4.427-10.393,1.54,3.464,1.733,8.083-.77,32.529,2.7,51.007,5.966,46-1.926,66.214-22.52,42.537-24.445,45.04a30.459,30.459,0,0,0-2.887,4.427s-7.122,49.083-8.661,76.029-3.079-2.7-3.079-2.7Z" transform="translate(-1.363 -1.563)" fill="#658ac6"/>
    <g id="Groupe_15" data-name="Groupe 15" transform="translate(1445.67 426.087)">
      <path id="Tracé_63" data-name="Tracé 63" d="M1456.991,498.152c2.905-11.09,5.609-36.685.323-69.922-17.705,40.792-7.156,82.337-7.156,82.337S1454.2,508.064,1456.991,498.152Z" transform="translate(-1447.039 -428.229)" fill="#141f46"/>
    </g>
    <path id="Tracé_64" data-name="Tracé 64" d="M1381.6,576.354s-8.084,1.732-11.26-.578-12.126-15.3-15.59-21.942-17.9-28.3-20.5-32.626-10.971-16.457-6.351-18.767c2.021-2.887,9.239,9.817,11.837,13.281s25.119,30.027,29.45,34.358,18.767,14.725,15.013,23.386l26.274,46.772-4.378-.1Z" transform="translate(-0.177 -2.871)" fill="#658ac6"/>
    <path id="Tracé_65" data-name="Tracé 65" d="M1387.688,619.962v74a54.78,54.78,0,0,0,25.407,46.259v23.522h4.62V742.861a54.581,54.581,0,0,0,24.808,5.938h33.535a54.617,54.617,0,0,0,22.5-4.831v19.776h4.62V741.617a54.8,54.8,0,0,0,27.717-47.653v-74Z" transform="translate(-0.782 -4.038)" fill="#e28d90"/>
  </g>
</svg>
