<svg xmlns="http://www.w3.org/2000/svg" width="28.421" height="31.903" viewBox="0 0 28.421 31.903">
  <g id="Scroll_down_arrow" data-name="Scroll down arrow" transform="translate(-971.182 -909.318)">
    <path id="Tracé_119" data-name="Tracé 119" d="M105.65,128.925a1.807,1.807,0,0,0-2.586,0L92.021,139.968,80.978,128.925a1.807,1.807,0,0,0-2.586,0,1.824,1.824,0,0,0,0,2.615l12.351,12.351a1.824,1.824,0,0,0,2.615,0l12.351-12.351a1.849,1.849,0,0,0,.552-1.308,2.123,2.123,0,0,0-.61-1.308Z" transform="translate(893.343 796.778)" fill="#fff" opacity="0.804"/>
    <path id="Tracé_120" data-name="Tracé 120" d="M105.65,128.925a1.807,1.807,0,0,0-2.586,0L92.021,139.968,80.978,128.925a1.807,1.807,0,0,0-2.586,0,1.824,1.824,0,0,0,0,2.615l12.351,12.351a1.824,1.824,0,0,0,2.615,0l12.351-12.351a1.849,1.849,0,0,0,.552-1.308,2.123,2.123,0,0,0-.61-1.308Z" transform="translate(893.343 780.938)" fill="#fff" opacity="0.597"/>
  </g>
</svg>
