<svg xmlns="http://www.w3.org/2000/svg" xmlns:xlink="http://www.w3.org/1999/xlink" width="624" height="856.7" viewBox="0 0 624 856.7">
  <defs>
    <linearGradient id="linear-gradient" y1="0.5" x2="1" y2="0.5" gradientUnits="objectBoundingBox">
      <stop offset="0" stop-color="#f0bba8"/>
      <stop offset="0.332" stop-color="#e3857d"/>
      <stop offset="0.626" stop-color="#da5d5d"/>
      <stop offset="0.858" stop-color="#d5454a"/>
      <stop offset="1" stop-color="#d33c43"/>
    </linearGradient>
  </defs>
  <g id="fenêtre" transform="translate(-648 -129.65)">
    <path id="Tracé_2" data-name="Tracé 2" d="M960,129.65c-172.3,0-311.973,179.78-311.973,401.548V986.35l623.946-1.064V531.2C1271.969,309.43,1132.294,129.65,960,129.65Z" fill="rgba(249,249,249,0.7)"/>
    <path id="Tracé_3" data-name="Tracé 3" d="M960,129.65c-172.3,0-311.973,179.78-311.973,401.548V986.183l50.243-10.772V559.431c0-221.768,139.675-401.548,311.972-401.548a249.273,249.273,0,0,1,99.123,20.707C1065,147.393,1014.109,129.65,960,129.65Z" opacity="0.5" fill="url(#linear-gradient)"/>
    <path id="Tracé_4" data-name="Tracé 4" d="M1272,975.71l-573.72-.338L648,986.187l623.969.1Z" fill="rgba(211,60,67,0.54)"/>
  </g>
</svg>
